<?xml version="1.0" standalone="no"?>
<!DOCTYPE svg PUBLIC "-//W3C//DTD SVG 20010904//EN"
 "http://www.w3.org/TR/2001/REC-SVG-20010904/DTD/svg10.dtd">
<svg version="1.0" xmlns="http://www.w3.org/2000/svg"
 width="64.000000pt" height="64.000000pt" viewBox="0 0 64.000000 64.000000"
 preserveAspectRatio="xMidYMid meet">

<g transform="translate(0.000000,64.000000) scale(0.100000,-0.100000)"
fill="#000000" stroke="none">
<path d="M45 527 c-3 -7 -4 -96 -3 -197 l3 -185 110 -5 c71 -3 104 -8 93 -14
-38 -18 -14 -26 75 -26 l92 0 -25 20 -25 19 110 3 110 3 0 195 0 195 -268 3
c-212 2 -269 0 -272 -11z m525 -157 l0 -150 -255 0 -255 0 0 150 0 150 255 0
255 0 0 -150z m0 -190 c0 -19 -7 -20 -255 -20 -248 0 -255 1 -255 20 0 19 7
20 255 20 248 0 255 -1 255 -20z m-215 -50 c4 -6 -12 -10 -40 -10 -28 0 -44 4
-40 10 3 6 21 10 40 10 19 0 37 -4 40 -10z"/>
<path d="M414 466 c-3 -13 -25 -43 -49 -66 -44 -43 -45 -43 -65 -25 -11 10
-20 24 -20 32 0 21 -30 27 -43 9 -7 -10 -21 -18 -32 -20 -23 -3 -34 -36 -12
-36 8 0 20 7 27 15 25 31 35 17 32 -45 -2 -37 0 -60 7 -60 5 0 11 24 13 53 3
52 3 52 17 25 18 -35 26 -35 55 -1 l23 27 -5 -52 c-3 -35 -1 -52 7 -52 7 0 11
19 11 49 0 28 5 53 10 56 6 4 8 9 6 13 -2 4 2 16 10 27 12 17 14 10 14 -63 0
-52 4 -82 11 -82 7 0 9 31 7 90 -2 50 0 90 5 90 4 0 7 9 7 20 0 28 -28 25 -36
-4z"/>
<path d="M190 311 c0 -23 5 -41 10 -41 6 0 10 15 10 34 0 19 -4 38 -10 41 -6
4 -10 -10 -10 -34z"/>
<path d="M310 290 c0 -11 5 -20 10 -20 6 0 10 9 10 20 0 11 -4 20 -10 20 -5 0
-10 -9 -10 -20z"/>
</g>
</svg>
