<svg width="92" height="92" viewBox="0 0 92 92" fill="none" xmlns="http://www.w3.org/2000/svg">
<path fill-rule="evenodd" clip-rule="evenodd" d="M89.0541 14.8252C89.8691 14.7881 90.5887 15.2447 90.8731 15.9857C91.1577 16.7251 90.9544 17.5972 90.3556 18.1958L77.0533 31.4995L62.6899 32.1707L59.664 35.1967C64.9283 41.1319 68.125 48.9426 68.125 57.5C68.125 76.0706 53.0706 91.125 34.5 91.125C15.9294 91.125 0.875 76.0706 0.875 57.5C0.875 38.9294 15.9294 23.875 34.5 23.875C43.0573 23.875 50.8679 27.0716 56.8031 32.3357L59.8283 29.3108L60.5011 14.9462L73.802 1.64422C74.4022 1.04683 75.2769 0.842105 76.0135 1.12649C76.7544 1.41371 77.211 2.13051 77.1755 2.94693L76.5894 15.4098L89.0541 14.8252ZM53.2599 35.8786C48.2359 31.5158 41.6763 28.875 34.5 28.875C18.6908 28.875 5.875 41.6908 5.875 57.5C5.875 73.3092 18.6908 86.125 34.5 86.125C50.3092 86.125 63.125 73.3092 63.125 57.5C63.125 50.3235 60.4841 43.7638 56.1211 38.7398L49.8525 45.0086C52.6277 48.4154 54.2916 52.7634 54.2916 57.5C54.2916 68.4306 45.4306 77.2916 34.5 77.2916C23.5693 77.2916 14.7083 68.4306 14.7083 57.5C14.7083 46.5693 23.5693 37.7083 34.5 37.7083C39.2364 37.7083 43.5842 39.3721 46.9909 42.1471L53.2599 35.8786ZM43.4304 45.7074C40.9488 43.8252 37.8548 42.7083 34.5 42.7083C26.3308 42.7083 19.7083 49.3308 19.7083 57.5C19.7083 65.6692 26.3308 72.2916 34.5 72.2916C42.6692 72.2916 49.2916 65.6692 49.2916 57.5C49.2916 54.1449 48.1746 51.0508 46.2922 48.5691L41.0078 53.8537C41.6131 54.9318 41.9584 56.1756 41.9584 57.5C41.9584 61.6191 38.6191 64.9584 34.5 64.9584C30.3809 64.9584 27.0417 61.6191 27.0417 57.5C27.0417 53.3809 30.3809 50.0417 34.5 50.0417C35.8241 50.0417 37.0676 50.3867 38.1455 50.9918L43.4304 45.7074Z" fill="url(#paint0_linear_248_1266)"/>
<defs>
<linearGradient id="paint0_linear_248_1266" x1="91.0342" y1="-42.6442" x2="131.458" y2="184.211" gradientUnits="userSpaceOnUse">
<stop stop-color="#0099DC"/>
<stop offset="0.2153" stop-color="#0090D4"/>
<stop offset="0.5668" stop-color="#0078BE"/>
<stop offset="1" stop-color="#00519C"/>
</linearGradient>
</defs>
</svg>
