<svg width="104" height="92" viewBox="0 0 104 92" fill="none" xmlns="http://www.w3.org/2000/svg">
<g clip-path="url(#clip0_248_1304)">
<path d="M52.1487 2.76321C48.6177 2.77944 45.2461 3.08178 42.2797 3.60913C33.5399 5.15946 31.9531 8.40319 31.9531 14.3865V22.2882H52.6063V24.9218H24.2016C18.1994 24.9218 12.9429 28.5436 11.2991 35.4332C9.40263 43.3302 9.31867 48.2581 11.2991 56.5038C12.7673 62.6418 16.2737 67.0152 22.2758 67.0152H29.3772V57.5431C29.3772 50.6999 35.2754 44.6641 42.2797 44.6641H62.909C68.6516 44.6641 73.2356 39.9179 73.2356 34.1287V14.3857C73.2356 8.76738 68.5137 4.54629 62.909 3.60835C59.3603 3.01606 55.6798 2.7462 52.1487 2.76321ZM40.9794 9.11766C43.1131 9.11766 44.8548 10.8953 44.8548 13.0805C44.8548 15.2579 43.1124 17.0193 40.9794 17.0193C38.8388 17.0193 37.1041 15.2587 37.1041 13.0805C37.1041 10.8953 38.8388 9.11766 40.9794 9.11766Z" fill="url(#paint0_linear_248_1304)"/>
<path d="M75.8115 24.921V34.1272C75.8115 41.2649 69.7831 47.2722 62.909 47.2722H42.2797C36.6288 47.2722 31.9531 52.1265 31.9531 57.8075V77.549C31.9531 83.1681 36.8198 86.4729 42.2797 88.0843C48.8172 90.0143 55.0866 90.363 62.909 88.0843C68.1085 86.5734 73.2356 83.5315 73.2356 77.549V69.648H52.6063V67.0144H83.5622C89.5651 67.0144 91.8013 62.8111 93.8888 56.503C96.0456 50.0094 95.954 43.7632 93.8888 35.4324C92.4052 29.4344 89.5721 24.921 83.5622 24.921H75.8115ZM64.2085 74.9153C66.3491 74.9153 68.0839 76.676 68.0839 78.8542C68.0839 81.0393 66.3491 82.817 64.2085 82.817C62.0748 82.817 60.3331 81.0393 60.3331 78.8542C60.3331 76.6767 62.0755 74.9153 64.2085 74.9153Z" fill="url(#paint1_linear_248_1304)"/>
</g>
<defs>
<linearGradient id="paint0_linear_248_1304" x1="73.2597" y1="-28.3528" x2="102.446" y2="133.243" gradientUnits="userSpaceOnUse">
<stop stop-color="#0099DC"/>
<stop offset="0.2153" stop-color="#0090D4"/>
<stop offset="0.5668" stop-color="#0078BE"/>
<stop offset="1" stop-color="#00519C"/>
</linearGradient>
<linearGradient id="paint1_linear_248_1304" x1="95.4964" y1="-6.43221" x2="125.061" y2="156.342" gradientUnits="userSpaceOnUse">
<stop stop-color="#0099DC"/>
<stop offset="0.2153" stop-color="#0090D4"/>
<stop offset="0.5668" stop-color="#0078BE"/>
<stop offset="1" stop-color="#00519C"/>
</linearGradient>
<clipPath id="clip0_248_1304">
<rect width="87" height="88" fill="white" transform="translate(9 2)"/>
</clipPath>
</defs>
</svg>
