<svg width="92" height="92" viewBox="0 0 92 92" fill="none" xmlns="http://www.w3.org/2000/svg">
<path fill-rule="evenodd" clip-rule="evenodd" d="M35.764 9.51736C35.764 10.7476 34.723 11.7887 33.4927 11.7887C32.2624 11.7887 31.2214 10.7476 31.2214 9.51736V3.2713C31.2214 2.04101 32.2624 1 33.4927 1C34.723 1 35.764 2.04101 35.764 3.2713V9.51736ZM74.3759 43.3974C75.7954 43.5867 77.215 44.2492 78.3506 45.3848C79.7702 46.8044 80.5273 48.6025 80.5273 50.5899C80.5273 52.4826 79.7702 54.3754 78.4453 55.7003L72.9563 61.1893C72.4831 61.7571 71.8207 62.1356 71.1582 62.5142C66.8995 69.2334 61.1266 75.4795 56.868 79.6435C52.7986 83.6183 46.931 85.3218 41.3475 83.9968L40.1172 83.7129L33.4926 90.3375C33.0194 90.8107 32.4515 91 31.8837 91C31.3159 91 30.7481 90.8107 30.2749 90.3375C29.4232 89.3912 29.4232 87.9716 30.2749 87.1199L37.8459 79.5489C38.4137 79.0757 39.1708 78.7918 39.9279 78.9811L42.3885 79.5489C46.5525 80.4953 50.7165 79.265 53.7449 76.3312C57.1519 72.9243 61.6945 68.0978 65.48 62.7981C64.5336 62.4195 63.5872 61.8517 62.8301 61.0946C61.6945 59.959 61.032 58.5394 60.8427 57.1199C60.6399 57.1199 60.4642 57.147 60.3011 57.1723L60.3011 57.1723C60.1599 57.1941 60.0281 57.2145 59.8964 57.2145C58.0036 57.2145 56.2055 56.552 54.7859 55.1325C53.7449 53.9968 53.0825 52.6719 52.7986 51.2523C52.6668 51.2523 52.5147 51.2727 52.3516 51.2946L52.3516 51.2946C52.1633 51.3198 51.9604 51.347 51.7576 51.347C50.9058 51.347 50.1487 51.2523 49.3916 50.9684C48.5399 57.7823 44.0919 62.2303 41.2528 63.8391C40.8743 64.0284 40.4957 64.123 40.1172 64.123C39.2654 64.123 38.5083 63.7445 38.1298 62.9874C37.562 61.8517 37.9405 60.5268 38.9815 59.8643C38.9886 59.8596 39 59.8523 39.0155 59.8424L39.0161 59.842C39.6305 59.4482 46.5948 54.9845 44.5651 45.5741C44.0919 43.3028 44.7544 40.8422 46.5525 39.0441L68.603 16.7097C69.644 15.6687 69.644 13.9653 68.603 12.9242C67.562 11.8832 65.8585 11.8832 64.8175 12.9242L35.7639 41.9779C35.196 42.5457 34.4389 42.8296 33.6818 42.6404C33.0194 42.5457 32.3569 41.9779 32.073 41.3154C32.073 41.3154 29.8017 36.0157 26.3948 31.7571C25.2591 30.3375 23.6503 28.8233 21.7575 27.4984C20.1487 26.2681 17.8774 26.2681 16.1739 27.4984C15.5115 27.9716 15.3222 28.8233 15.7954 29.4858L19.7702 35.6372C22.3254 39.612 23.6503 44.3438 23.5556 49.0757L23.2717 60.8107C23.1771 63.1766 22.2307 65.3533 20.6219 66.9621L15.2276 72.3565C14.7544 72.8296 14.1866 73.0189 13.6187 73.0189C13.0509 73.0189 12.4831 72.8296 12.0099 72.3565C11.1582 71.4101 11.1582 69.9905 12.0099 69.1388L17.4042 63.7445C18.256 62.8927 18.7291 61.8517 18.7291 60.7161L19.0131 48.9811C19.1077 45.1009 18.0667 41.3154 15.9847 38.0978L12.0099 31.9463C10.2118 29.2019 10.8742 25.7003 13.5241 23.8075C16.7418 21.4416 21.0951 21.4416 24.4074 23.8075C26.6787 25.4164 28.5714 27.1198 29.991 28.9179C32.1676 31.5678 33.8711 34.5015 34.9121 36.5836L61.6945 9.80122C64.5336 6.9621 69.0762 6.9621 71.9153 9.80122C74.7544 12.6403 74.7544 17.1829 71.9153 20.022L64.2497 27.6877C65.1014 28.0662 65.8585 28.5394 66.521 29.2019C67.8459 30.5268 68.603 32.4195 68.603 34.3123C68.603 34.6908 68.603 34.9747 68.5084 35.3533C69.9279 35.6372 71.3475 36.2997 72.3885 37.3407C73.9973 39.0441 74.6598 41.2208 74.3759 43.3974ZM49.7702 46.0473C50.8112 47.0883 52.5147 47.0883 53.5557 46.0473L63.3033 36.2997C63.7765 35.8265 64.0604 35.164 64.0604 34.4069C64.0604 33.7444 63.7765 32.9874 63.3033 32.5142C62.2623 31.4732 60.5588 31.4732 59.5178 32.5142L49.7702 42.2618C48.7292 43.3028 48.7292 45.0063 49.7702 46.0473ZM57.909 51.9148C58.95 52.9558 60.6535 52.9558 61.6945 51.9148L69.1708 44.4385C70.2118 43.3975 70.2118 41.694 69.1708 40.653C68.6976 40.1798 67.9405 39.8959 67.2781 39.8959C66.6156 39.8959 65.9531 40.0851 65.3853 40.653L57.909 48.1293C56.868 49.1703 56.868 50.8738 57.909 51.9148ZM69.644 57.9716L75.133 52.4826C75.7008 51.9148 75.9847 51.2523 75.8901 50.5899C75.8901 49.9274 75.6061 49.1703 75.133 48.6971C74.0919 47.6561 72.3885 47.6561 71.3475 48.6971L65.8585 54.1861C64.8175 55.2271 64.8175 56.9306 65.8585 57.9716C66.8995 59.0126 68.603 59.0126 69.644 57.9716ZM22.0416 15.1956C22.5148 15.6688 23.0826 15.858 23.6504 15.858C24.2182 15.858 24.7861 15.6688 25.2592 15.1956C26.111 14.3438 26.111 12.9243 25.2592 11.9779L20.8113 7.52995C19.9596 6.67821 18.4454 6.67821 17.5936 7.52995C16.7419 8.38168 16.7419 9.80124 17.5936 10.7476L22.0416 15.1956ZM44.9439 15.1956C44.4707 15.6688 43.9029 15.858 43.3351 15.858C42.7672 15.858 42.1994 15.6688 41.7262 15.1956C40.8745 14.2492 40.8745 12.8296 41.7262 11.9779L46.1742 7.52995C47.0259 6.67821 48.5401 6.67821 49.3919 7.52995C50.2436 8.47632 50.2436 9.89588 49.3919 10.7476L44.9439 15.1956Z" fill="url(#paint0_linear_248_1267)"/>
<defs>
<linearGradient id="paint0_linear_248_1267" x1="80.5537" y1="-42.5837" x2="131.744" y2="179.343" gradientUnits="userSpaceOnUse">
<stop stop-color="#0099DC"/>
<stop offset="0.2153" stop-color="#0090D4"/>
<stop offset="0.5668" stop-color="#0078BE"/>
<stop offset="1" stop-color="#00519C"/>
</linearGradient>
</defs>
</svg>
