<svg width="177" height="auto" viewBox="0 0 220 47" fill="none" xmlns="http://www.w3.org/2000/svg">
<path fill-rule="evenodd" clip-rule="evenodd" d="M142.392 33.8398C140.956 33.8398 139.66 33.5238 138.504 32.8916C137.366 32.241 136.471 31.3486 135.818 30.2146C135.165 29.0805 134.838 27.7419 134.838 26.1989C134.838 24.6558 135.165 23.3173 135.818 22.1832C136.471 21.0492 137.366 20.1661 138.504 19.534C139.66 18.9019 140.956 18.5859 142.392 18.5859C143.642 18.5859 144.761 18.8647 145.749 19.4224C146.297 19.7213 146.782 20.1086 147.204 20.5845V12.9528H150.674V33.6446H147.345V31.7088C146.908 32.2393 146.395 32.6708 145.806 33.0032C144.817 33.561 143.679 33.8398 142.392 33.8398ZM142.812 30.856C143.651 30.856 144.397 30.6701 145.05 30.2982C145.721 29.9264 146.253 29.3873 146.645 28.6808C147.055 27.9743 147.261 27.147 147.261 26.1989C147.261 25.2322 147.055 24.4048 146.645 23.717C146.253 23.0105 145.721 22.4714 145.05 22.0996C144.397 21.7278 143.651 21.5418 142.812 21.5418C141.973 21.5418 141.218 21.7278 140.546 22.0996C139.893 22.4714 139.362 23.0105 138.951 23.717C138.56 24.4048 138.364 25.2322 138.364 26.1989C138.364 27.147 138.56 27.9743 138.951 28.6808C139.362 29.3873 139.893 29.9264 140.546 30.2982C141.218 30.6701 141.973 30.856 142.812 30.856ZM88.8706 33.9229C87.3409 33.9229 85.8769 33.7091 84.4779 33.2814C83.0789 32.8353 81.9691 32.2683 81.1486 31.5804L82.4076 28.7639C83.191 29.3774 84.1608 29.8886 85.3174 30.2976C86.4736 30.7066 87.658 30.9111 88.8706 30.9111C89.8965 30.9111 90.7263 30.7995 91.3604 30.5765C91.9946 30.3534 92.4609 30.0559 92.7595 29.6841C93.0576 29.2937 93.2069 28.8568 93.2069 28.3734C93.2069 27.7785 92.9926 27.3045 92.5634 26.9512C92.1346 26.5794 91.5751 26.2912 90.8848 26.0867C90.2135 25.8636 89.458 25.6591 88.6185 25.4732C87.7979 25.2873 86.9681 25.0735 86.1286 24.8318C85.3081 24.5716 84.5525 24.2462 83.8623 23.8558C83.191 23.4468 82.6408 22.9076 82.2116 22.2384C81.7827 21.5691 81.5685 20.7139 81.5685 19.6728C81.5685 18.6131 81.8481 17.6463 82.4076 16.7726C82.9857 15.8803 83.853 15.1738 85.0096 14.6532C86.1847 14.1141 87.6673 13.8445 89.458 13.8445C90.6331 13.8445 91.7989 13.9933 92.9551 14.2907C94.1117 14.5882 95.1186 15.0158 95.9767 15.5735L94.8298 18.39C93.9531 17.8695 93.0483 17.4884 92.116 17.2467C91.1833 16.9864 90.2878 16.8563 89.4301 16.8563C88.4228 16.8563 87.6023 16.9771 86.9681 17.2188C86.3525 17.4605 85.8955 17.7765 85.597 18.1669C85.3174 18.5573 85.1774 19.0035 85.1774 19.5055C85.1774 20.1004 85.3827 20.5838 85.793 20.9556C86.2218 21.3088 86.7721 21.5877 87.4437 21.7922C88.1336 21.9967 88.8984 22.2012 89.7379 22.4057C90.577 22.5916 91.4072 22.8054 92.2278 23.0471C93.0673 23.2888 93.8224 23.6048 94.4941 23.9952C95.184 24.3857 95.7342 24.9155 96.1449 25.5848C96.5737 26.254 96.7883 27.1 96.7883 28.1225C96.7883 29.1635 96.4991 30.1303 95.921 31.0227C95.3614 31.8965 94.4941 32.6029 93.319 33.142C92.1439 33.6626 90.6609 33.9229 88.8706 33.9229ZM108.341 33.8397C107.128 33.8397 106.019 33.5609 105.012 33.0031C104.467 32.696 103.982 32.3043 103.557 31.8281V39.0546H100.059V18.7531H103.389V20.7143C103.837 20.1786 104.359 19.7479 104.956 19.4224C105.944 18.8646 107.073 18.5858 108.341 18.5858C109.815 18.5858 111.111 18.9018 112.229 19.5339C113.367 20.166 114.263 21.0491 114.916 22.1831C115.587 23.3172 115.923 24.6558 115.923 26.1988C115.923 27.7418 115.587 29.0897 114.916 30.2424C114.263 31.3764 113.367 32.2595 112.229 32.8916C111.111 33.5237 109.815 33.8397 108.341 33.8397ZM107.949 30.8559C108.789 30.8559 109.535 30.67 110.187 30.2982C110.859 29.9263 111.39 29.3872 111.782 28.6807C112.174 27.9743 112.37 27.1469 112.37 26.1988C112.37 25.2321 112.174 24.4048 111.782 23.7169C111.39 23.0105 110.859 22.4713 110.187 22.0995C109.535 21.7277 108.789 21.5418 107.949 21.5418C107.11 21.5418 106.355 21.7277 105.683 22.0995C105.012 22.4713 104.48 23.0105 104.088 23.7169C103.697 24.4048 103.501 25.2321 103.501 26.1988C103.501 27.1469 103.697 27.9743 104.088 28.6807C104.48 29.3872 105.012 29.9263 105.683 30.2982C106.355 30.67 107.11 30.8559 107.949 30.8559ZM128.253 31.8372V33.6446H131.554V24.916C131.554 22.7594 130.957 21.1699 129.763 20.1475C128.588 19.1063 126.919 18.5858 124.755 18.5858C123.561 18.5858 122.406 18.7438 121.286 19.0599C120.186 19.3573 119.234 19.8128 118.432 20.4263L119.803 22.9639C120.363 22.4992 121.043 22.1367 121.846 21.8764C122.667 21.6161 123.496 21.486 124.336 21.486C125.585 21.486 126.518 21.7741 127.133 22.3505C127.749 22.9082 128.057 23.6984 128.057 24.7209V24.9439H124.196C122.685 24.9439 121.473 25.1391 120.559 25.5295C119.645 25.9199 118.983 26.4498 118.572 27.1191C118.181 27.7883 117.985 28.5412 117.985 29.3779C117.985 30.2331 118.209 31.0046 118.656 31.6925C119.123 32.3617 119.775 32.8916 120.615 33.282C121.454 33.6538 122.433 33.8397 123.552 33.8397C124.877 33.8397 125.968 33.598 126.825 33.1147C127.43 32.7816 127.905 32.3557 128.253 31.8372ZM128.057 28.9875V27.2585H124.448C123.254 27.2585 122.452 27.4537 122.041 27.8441C121.631 28.2159 121.426 28.6807 121.426 29.2385C121.426 29.8706 121.678 30.3725 122.181 30.7443C122.685 31.1161 123.385 31.3021 124.279 31.3021C125.138 31.3021 125.903 31.1068 126.574 30.7164C127.264 30.3261 127.758 29.7497 128.057 28.9875ZM157.935 32.8637C159.185 33.5144 160.639 33.8397 162.299 33.8397C163.605 33.8397 164.761 33.6352 165.768 33.2262C166.794 32.7986 167.643 32.1944 168.315 31.4137L166.44 29.2663C165.918 29.8241 165.321 30.2331 164.65 30.4933C163.978 30.7537 163.222 30.8837 162.384 30.8837C161.413 30.8837 160.556 30.6978 159.809 30.3261C159.063 29.9542 158.485 29.4243 158.075 28.7365C157.816 28.303 157.639 27.829 157.543 27.3143H169.265C169.284 27.1469 169.294 26.9703 169.294 26.7844C169.312 26.5985 169.322 26.4312 169.322 26.2825C169.322 24.7209 168.995 23.3637 168.343 22.211C167.69 21.0584 166.794 20.166 165.656 19.5339C164.518 18.9018 163.222 18.5858 161.768 18.5858C160.275 18.5858 158.942 18.9111 157.767 19.5618C156.61 20.2125 155.696 21.1141 155.025 22.2668C154.372 23.4009 154.046 24.7115 154.046 26.1988C154.046 27.6675 154.382 28.9782 155.053 30.1308C155.743 31.2835 156.704 32.1944 157.935 32.8637ZM157.512 24.9997C157.588 24.4411 157.748 23.9392 157.99 23.4939C158.364 22.8245 158.867 22.304 159.501 21.9322C160.154 21.5603 160.91 21.3745 161.768 21.3745C162.607 21.3745 163.344 21.5603 163.978 21.9322C164.631 22.304 165.144 22.8153 165.516 23.466C165.78 23.9261 165.946 24.4373 166.014 24.9997H157.512Z" fill="url(#paint0_linear_9_309)"/>
<path d="M60.629 40.1502C60.5782 40.2009 60.5204 40.2445 60.4623 40.2735C56.9628 42.6904 48.6741 42.0021 44.2306 37.5731L39.3579 32.9149C38.8642 32.4228 38.8642 31.6702 39.3579 31.1781L42.8419 27.6902L42.2611 27.1113L25.6488 10.7527C24.1967 9.30535 24.1967 6.98955 25.6488 5.54218C27.1009 4.0948 29.4242 4.0948 30.8763 5.54218L47.4887 21.9007L48.0695 22.4797L51.0075 19.5604C51.5012 19.0683 52.2563 19.0683 52.75 19.5604L56.1414 22.6307C60.5848 27.0597 64.412 34.8892 60.7527 39.984C60.7237 40.0419 60.6799 40.0995 60.629 40.1502ZM58.865 38.3919C61.682 34.3103 57.942 27.8992 54.3989 24.3676L51.8828 22.0829L46.327 27.6902L46.9078 28.2692C47.4015 28.7613 48.1566 28.7613 48.6503 28.2692C49.1441 27.7771 49.8378 27.7771 50.3315 28.2692C50.8253 28.7613 50.8866 29.5139 50.3929 30.006C48.9408 31.4534 46.6174 31.4534 45.1653 30.006L44.5845 29.4271L41.9717 32.0465L45.9732 35.8363C48.5432 37.9825 54.712 41.1998 58.865 38.3919ZM43.1324 24.506L44.8749 22.7692L29.1338 7.27903C28.6401 6.78692 27.885 6.78692 27.3913 7.27903C26.8976 7.77113 26.8976 8.52377 27.3913 9.01588L43.1324 24.506Z" fill="url(#paint1_linear_9_309)"/>
<path d="M66.3418 42.014C65.7803 40.6327 63.3194 40.3087 61.6293 40.2436C61.321 39.5998 60.6329 39.1098 59.5648 38.7892C57.2967 38.1116 54.0596 38.4321 52.997 38.5651C51.1583 37.9682 47.4182 38.721 44.6215 38.7892C38.3063 38.9434 24.572 39.2283 25.5002 42.014C29.9557 42.014 52.365 42.014 66.3418 42.014Z" fill="url(#paint2_linear_9_309)"/>
<defs>
<linearGradient id="paint0_linear_9_309" x1="96.7946" y1="4.12186" x2="108.13" y2="53.6729" gradientUnits="userSpaceOnUse">
<stop stop-color="#0099DC"/>
<stop offset="0.2153" stop-color="#0090D4"/>
<stop offset="0.5668" stop-color="#0078BE"/>
<stop offset="1" stop-color="#00519C"/>
</linearGradient>
<linearGradient id="paint1_linear_9_309" x1="84.0556" y1="50.4438" x2="43.7679" y2="-58.3652" gradientUnits="userSpaceOnUse">
<stop stop-color="#0099DC"/>
<stop offset="0.2153" stop-color="#0090D4"/>
<stop offset="0.5668" stop-color="#0078BE"/>
<stop offset="1" stop-color="#00519C"/>
</linearGradient>
<linearGradient id="paint2_linear_9_309" x1="30.8196" y1="25.6188" x2="31.5874" y2="49.8695" gradientUnits="userSpaceOnUse">
<stop stop-color="#0099DC"/>
<stop offset="0.2153" stop-color="#0090D4"/>
<stop offset="0.5668" stop-color="#0078BE"/>
<stop offset="1" stop-color="#00519C"/>
</linearGradient>
</defs>
</svg>
