<?xml version="1.0" encoding="UTF-8"?>
<svg version="1.1" xmlns="http://www.w3.org/2000/svg" width="64" height="64">
<path d="M0 0 C7.04133662 4.94029263 11.28955656 10.29852186 13.75 18.5 C14.68639844 27.86398441 13.25904622 36.20233746 7.375 43.875 C1.54929928 49.94891353 -5.96701642 52.74247044 -14.26953125 53.12890625 C-22.39862443 52.74512932 -29.21721633 49.71838741 -35 44 C-39.91659762 37.84487015 -42.48572434 31.08391719 -42.25390625 23.109375 C-41.31325197 15.29470871 -37.91417022 8.91417022 -32.375 3.375 C-22.95117793 -3.94148498 -10.66844177 -5.57668547 0 0 Z M-22 4 C-21.67 5.32 -21.34 6.64 -21 8 C-16.71 8 -12.42 8 -8 8 C-7.67 6.68 -7.34 5.36 -7 4 C-12.6447992 1.49120036 -16.25762846 1.91186489 -22 4 Z M-34 9 C-36.38176705 12.22071802 -36.38176705 12.22071802 -37 16 C-33.7 16.99 -30.4 17.98 -27 19 C-26.5875 18.236875 -26.175 17.47375 -25.75 16.6875 C-24.04124191 14.0633358 -22.58982247 12.69678024 -20 11 C-20.433125 10.608125 -20.86625 10.21625 -21.3125 9.8125 C-23.25874318 7.72209066 -24.54437028 5.44810452 -26 3 C-28.81158387 3 -32.07578977 7.14560238 -34 9 Z M-3 3 C-5.2013866 6.80427492 -5.2013866 6.80427492 -6 11 C-6.99 11.495 -6.99 11.495 -8 12 C-7.21625 12.4125 -6.4325 12.825 -5.625 13.25 C-3 15 -3 15 -1 19 C3.95 17.515 3.95 17.515 9 16 C7.53942013 11.48548039 5.26941381 8.42147956 2 5 C-0.6514482 3.60180488 -0.6514482 3.60180488 -3 3 Z M-24.8125 18.1875 C-26.38212437 21.90503141 -26.88867785 25.08241181 -26 29 C-24.08980197 32.76974686 -21.82967145 35.37405977 -17.7734375 36.76171875 C-14.10253855 37.33261106 -11.65770374 37.26308149 -8.1875 35.875 C-3.77803566 32.23222015 -3.77803566 32.23222015 -1.6484375 27.07421875 C-1.46330212 22.60572386 -2.07176654 19.53407487 -5 16 C-8.56336997 13.04749345 -11.58385262 12.52034578 -16.07421875 12.71484375 C-20.09689007 13.31049285 -22.27924909 15.13012821 -24.8125 18.1875 Z M-36 19 C-36.05406122 20.93719378 -36.09282025 22.87481921 -36.125 24.8125 C-36.14820313 25.89144531 -36.17140625 26.97039063 -36.1953125 28.08203125 C-36.23023717 31.19402868 -36.23023717 31.19402868 -34 34 C-33.01 33.34 -32.02 32.68 -31 32 C-30.63501966 29.10391601 -30.63501966 29.10391601 -30.8125 25.875 C-30.83957031 24.77929688 -30.86664062 23.68359375 -30.89453125 22.5546875 C-30.92933594 21.71164063 -30.96414062 20.86859375 -31 20 C-32.65 19.67 -34.3 19.34 -36 19 Z M4 20 C3.5316735 22.58605332 3.5316735 22.58605332 3.375 25.5625 C3.30023438 26.57441406 3.22546875 27.58632813 3.1484375 28.62890625 C3.09945312 29.41136719 3.05046875 30.19382812 3 31 C4.94603274 31.59070014 4.94603274 31.59070014 7 32 C8.31262571 30.91447634 8.31262571 30.91447634 8.09765625 28.27734375 C8.08605469 27.17519531 8.07445312 26.07304688 8.0625 24.9375 C8.05347656 23.83277344 8.04445313 22.72804688 8.03515625 21.58984375 C8.02355469 20.73519531 8.01195312 19.88054688 8 19 C5.9254644 18.8509288 5.9254644 18.8509288 4 20 Z M0 20 C1 22 1 22 1 22 Z M-1 31 C-1.226875 31.78375 -1.45375 32.5675 -1.6875 33.375 C-3 36 -3 36 -8 38 C-6.68 41.3 -5.36 44.6 -4 48 C2.10282919 45.07064199 5.27962423 41.61463303 9 36 C6.68321437 34.77491933 4.91419973 33.98403716 2.3125 33.5 C1.549375 33.335 0.78625 33.17 0 33 C-0.33 32.34 -0.66 31.68 -1 31 Z M-29.46875 33.55859375 C-31.7342383 34.5945528 -33.87402394 35.70320281 -36 37 C-33.02212365 42.12194732 -30.02811965 44.83414689 -25 48 C-24.34 48 -23.68 48 -23 48 C-22.01 44.7 -21.02 41.4 -20 38 C-24.08931744 33.80707577 -24.08931744 33.80707577 -29.46875 33.55859375 Z M-19 42 C-19.33 43.32 -19.66 44.64 -20 46 C-18.94021067 47.28612676 -18.94021067 47.28612676 -16.49609375 47.09765625 C-15.48675781 47.08605469 -14.47742188 47.07445312 -13.4375 47.0625 C-12.42558594 47.05347656 -11.41367187 47.04445313 -10.37109375 47.03515625 C-9.58863281 47.02355469 -8.80617188 47.01195312 -8 47 C-8 45.35 -8 43.7 -8 42 C-11.63 42 -15.26 42 -19 42 Z " fill="#000000" transform="translate(46,7)"/>
</svg>
